<?xml version="1.0" encoding="UTF-8"?><svg id="Layer_1" xmlns="http://www.w3.org/2000/svg" viewBox="0 0 468.22 40"><defs><style>.cls-1{fill:#231f20;}</style></defs><path class="cls-1" d="M22,18v2h2v2h2v2h2v8h-2v4h-2v2h-2v2H0V0h22v2h2v2h2v4h2v6h-2v2h-2v2h-2ZM20,8h-2v-2h-10v10h10v-2h2v-6ZM20,24h-2v-2h-10v12h10v-2h2v-8Z"/><path class="cls-1" d="M54.02,20v4h2v4h2v8h2v4h-8v-4h-2v-8h-2v-2h-2v-2h-6v16h-8V0h22v2h2v2h2v4h2v6h-2v4h-2v2h-2ZM52.02,10h-2v-2h-2v-2h-8v12h8v-2h2v-2h2v-4Z"/><path class="cls-1" d="M72.04,6v10h16v6h-16v12h16v6h-24V0h24v6h-16Z"/><path class="cls-1" d="M124.05,0v40h-8v-2h-2v-4h-2v-2h-2v-4h-2v-2h-2v-4h-2v-2h-2v-4h-2v24h-8V0h8v2h2v4h2v2h2v4h2v2h2v4h2v2h2v4h2V0h8Z"/><path class="cls-1" d="M160.07,0v40h-8v-2h-2v-4h-2v-2h-2v-4h-2v-2h-2v-4h-2v-2h-2v-4h-2v24h-8V0h8v2h2v4h2v2h2v4h2v2h2v4h2v2h2v4h2V0h8Z"/><path class="cls-1" d="M200.08,36v4h-8v-4h-2v-6h-2v-2h-12v2h-2v6h-2v4h-8v-4h2v-6h2v-4h2v-6h2v-6h2v-6h2V2h2V0h8v2h2v6h2v6h2v6h2v6h2v4h2v6h2ZM186.08,18h-2v-6h-4v6h-2v4h8v-4Z"/><path class="cls-1" d="M236.11,0v40h-8v-2h-2v-4h-2v-2h-2v-4h-2v-2h-2v-4h-2v-2h-2v-4h-2v24h-8V0h8v2h2v4h2v2h2v4h2v2h2v4h2v2h2v4h2V0h8Z"/><path class="cls-1" d="M286.13,38v2h-10v-2h-2v-2h-2v-4h-2v-2h-2v-4h-2v-2h-4v16h-8V0h8v14h2v-2h2v-2h2v-2h2v-4h2v-2h2V0h10v2h-2v2h-2v2h-2v4h-2v2h-2v2h-2v2h-2v2h2v4h2v2h2v4h2v2h2v2h2v4h2v2h2Z"/><path class="cls-1" d="M298.15,6v10h16v6h-16v12h16v6h-24V0h24v6h-16Z"/><path class="cls-1" d="M354.17,36v4h-8v-4h-2v-6h-2v-2h-12v2h-2v6h-2v4h-8v-4h2v-6h2v-4h2v-6h2v-6h2v-6h2V2h2V0h8v2h2v6h2v6h2v6h2v6h2v4h2v6h2ZM340.17,18h-2v-6h-4v6h-2v4h8v-4Z"/><path class="cls-1" d="M380.18,0v6h-12v34h-8V6h-12V0h32Z"/><path class="cls-1" d="M384.2,40V0h8v40h-8Z"/><path class="cls-1" d="M428.21,0v40h-8v-2h-2v-4h-2v-2h-2v-4h-2v-2h-2v-4h-2v-2h-2v-4h-2v24h-8V0h8v2h2v4h2v2h2v4h2v2h2v4h2v2h2v4h2V0h8Z"/><path class="cls-1" d="M468.22,18v20h-2v2h-22v-2h-4v-2h-2v-2h-2v-4h-2v-4h-2v-10h2v-6h2v-4h2v-2h2v-2h4V0h22v6h-20v2h-2v2h-2v4h-2v12h2v4h2v2h2v2h14v-10h-8v-6h16Z"/></svg>