<?xml version="1.0" encoding="UTF-8"?><svg id="Layer_1" xmlns="http://www.w3.org/2000/svg" viewBox="0 0 1000 124.09" width="1000" height="124.09"><path d="M1000,80.29v-14.6h-21.9v14.6h3.65c2.02,0,3.65,1.63,3.65,3.65v21.9c0,2.02-1.63,3.65-3.65,3.65h-10.95V29.2h10.95c2.02,0,3.65,1.63,3.65,3.65v18.25h14.6V7.3c0-4.03-3.27-7.3-7.3-7.3h-51.09v80.29h0v29.2h-7.3v14.6h58.39c4.03,0,7.3-3.27,7.3-7.3v-36.5Z"/><path d="M912.41,7.3v65.69L890.51,0h-29.2v109.49h-7.3v14.6h29.2s7.3,0,7.3-7.3V51.09l21.9,72.99h14.6V29.2h7.3V0h-14.6s-7.3,0-7.3,7.3Z"/><path d="M635.04,105.84v-25.55h18.25v-14.6h-18.25V29.2h29.2V0h-65.69v29.2h7.3v36.5h-7.3v14.6h7.3v43.8h51.09v-14.6h-21.9v-3.65Z"/><path d="M810.22,0h-72.99v29.2h21.9v36.5h-7.3v14.6h7.3v29.2h0s-7.3,0-7.3,0v14.6h29.2s7.3,0,7.3-7.3V29.2h21.9V0Z"/><path d="M591.24,80.29s0-7.3-7.3-7.3c7.3,0,7.3-7.3,7.3-7.3V0h-14.6v62.04c0,2.02-1.63,3.65-3.65,3.65h-10.95V0h-29.2v80.29h0v43.8h29.2v-43.8h10.95c2.02,0,3.65,1.63,3.65,3.65v36.5s0,3.65,3.65,3.65h18.25v-14.6h-7.3v-29.2Z"/><path d="M722.63,0h-51.09v65.69h-7.3v14.6h7.3v43.8h29.2v-43.8h14.6v43.8h14.6V7.3c0-4.03-3.27-7.3-7.3-7.3ZM715.33,65.69h-14.6V29.2h10.95c2.02,0,3.65,1.63,3.65,3.65v32.85Z"/><path d="M854.01,0h-29.2s-7.3,0-7.3,7.3v102.19h-7.3v14.6h29.2c7.3,0,7.3-7.3,7.3-7.3V29.2h7.3V0Z"/><path d="M58.39,116.79v-36.5s0-7.3-7.3-7.3c7.3,0,7.3-7.3,7.3-7.3V7.3c0-4.03-3.27-7.3-7.3-7.3H0v80.29h0v43.8h51.09c4.03,0,7.3-3.27,7.3-7.3ZM43.8,105.84c0,2.02-1.63,3.65-3.65,3.65h-10.95v-29.2h10.95c2.02,0,3.65,1.63,3.65,3.65v21.9ZM43.8,62.04c0,2.02-1.63,3.65-3.65,3.65h-10.95V29.2h10.95c2.02,0,3.65,1.63,3.65,3.65v29.2Z"/><path d="M138.69,109.49v14.6h51.09v-14.6h-21.9v-29.2h18.25v-14.6h-18.25V29.2h29.2V0h-65.69v29.2h7.3v36.5h-7.3v14.6h7.3v29.2Z"/><path d="M94.89,109.49v-29.2h10.95c2.02,0,3.65,1.63,3.65,3.65v36.5s0,3.65,3.65,3.65h18.25v-14.6h-7.3v-29.2s0-7.3-7.3-7.3c7.3,0,7.3-7.3,7.3-7.3V7.3c0-4.03-3.27-7.3-7.3-7.3h-51.09v80.29h0v43.8h29.2v-14.6ZM94.89,62.04V29.2h10.95c2.02,0,3.65,1.63,3.65,3.65v29.2c0,2.02-1.63,3.65-3.65,3.65h-10.95v-3.65Z"/><path d="M233.58,116.79c0-7.3,0-65.69,0-65.69l21.9,72.99h14.6V29.2h7.3V0h-14.6s-7.3,0-7.3,7.3,0,65.69,0,65.69L233.58,0h-29.2v109.49h-7.3v14.6h29.2s7.3,0,7.3-7.3Z"/><path d="M277.37,124.09h29.2s7.3,0,7.3-7.3,0-65.69,0-65.69l21.9,72.99h14.6V29.2h7.3V0h-14.6s-7.3,0-7.3,7.3,0,65.69,0,65.69L313.87,0h-29.2v109.49h-7.3v14.6Z"/><path d="M489.05,0s-7.3,0-7.3,7.3,0,65.69,0,65.69L459.85,0h-29.2v124.09h29.2V51.09l21.9,72.99h14.6V29.2h7.3V0h-14.6Z"/><path d="M357.66,80.29h7.3v43.8h29.2v-43.8h14.6v43.8h14.6v-14.6h0V7.3c0-4.03-3.27-7.3-7.3-7.3h-51.09v65.69h-7.3v14.6ZM394.16,62.04V29.2h10.95c2.02,0,3.65,1.63,3.65,3.65v32.85h-14.6v-3.65Z"/></svg>