<?xml version="1.0" encoding="UTF-8"?>
<svg id="Layer_1" xmlns="http://www.w3.org/2000/svg" version="1.1" viewBox="0 0 5130 612">
  <!-- Generator: Adobe Illustrator 30.2.1, SVG Export Plug-In . SVG Version: 2.1.1 Build 1)  -->
  <defs>
    <style>
      .st0 {
        fill: #fff;
      }
    </style>
  </defs>
  <path class="st0" d="M5130,396v-72h-108v72h18c9.94,0,18,8.06,18,18v108c0,9.94-8.06,18-18,18h-54V144h54c9.94,0,18,8.06,18,18v90h72V36c0-19.88-16.12-36-36-36h-252v396h0v144h-36v72h288c19.88,0,36-16.12,36-36v-180Z"/>
  <path class="st0" d="M4680,36v324L4572,0h-144v540h-36v72h144s36,0,36-36V252l108,360h72V144h36V0h-72s-36,0-36,36Z"/>
  <path class="st0" d="M3276,522v-126h90v-72h-90v-180h144V0h-324v144h36v180h-36v72h36v216h252v-72h-108v-18Z"/>
  <path class="st0" d="M4158,0h-360v144h108v180h-36v72h36v144h-36v72h144s36,0,36-36V144h108V0Z"/>
  <path class="st0" d="M3042,396s0-36-36-36c36,0,36-36,36-36V0h-72v306c0,9.94-8.06,18-18,18h-54V0h-144v396h0v216h144v-216h54c9.94,0,18,8.06,18,18v180s0,18,18,18h90v-72h-36v-144Z"/>
  <path class="st0" d="M3726,0h-252v324h-36v72h36v216h144v-216h72v216h72V36c0-19.88-16.12-36-36-36ZM3690,324h-72v-180h54c9.94,0,18,8.06,18,18v162Z"/>
  <path class="st0" d="M4374,0h-144s-36,0-36,36v504h-36v72h144c36,0,36-36,36-36V144h36V0Z"/>
  <path class="st0" d="M288,576v-180s0-36-36-36c36,0,36-36,36-36V36c0-19.88-16.12-36-36-36H0v396h0v216h252c19.88,0,36-16.12,36-36ZM216,522c0,9.94-8.06,18-18,18h-54v-144h54c9.94,0,18,8.06,18,18v108ZM216,306c0,9.94-8.06,18-18,18h-54v-180h54c9.94,0,18,8.06,18,18v144Z"/>
  <path class="st0" d="M720,540v72h252v-72h-108v-144h90v-72h-90v-180h144V0h-324v144h36v180h-36v72h36v144Z"/>
  <path class="st0" d="M486,540v-144h54c9.94,0,18,8.06,18,18v180s0,18,18,18h90v-72h-36v-144s0-36-36-36c36,0,36-36,36-36V36c0-19.88-16.12-36-36-36h-252v396h0v216h144v-72ZM486,306v-162h54c9.94,0,18,8.06,18,18v144c0,9.94-8.06,18-18,18h-54v-18Z"/>
  <path class="st0" d="M1206,576V252l108,360h72V144h36V0h-72s-36,0-36,36v324L1206,0h-144v540h-36v72h144s36,0,36-36Z"/>
  <path class="st0" d="M1440,612h144s36,0,36-36V252l108,360h72V144h36V0h-72s-36,0-36,36v324L1620,0h-144v540h-36v72Z"/>
  <path class="st0" d="M2520,0s-36,0-36,36v324L2376,0h-144v612h144V252l108,360h72V144h36V0h-72Z"/>
  <path class="st0" d="M1854,396h36v216h144v-216h72v216h72v-72h0V36c0-19.88-16.12-36-36-36h-252v324h-36v72ZM2034,306v-162h54c9.94,0,18,8.06,18,18v162h-72v-18Z"/>
</svg>